<?xml version="1.0" standalone="no"?>
<svg xmlns="http://www.w3.org/2000/svg" width="16" height="16">
    <rect width="16" height="16" opacity="0"></rect>
    <g>
        <path d="M8 14.82Q9.76 14.82 11.3 13.96Q12.83 13.1 13.78 11.62Q14.74 10.14 14.83 8.35Q14.85 8.14 14.7 7.99Q14.56 7.84 14.35 7.82Q14.14 7.81 13.99 7.94Q13.84 8.08 13.82 8.29Q13.76 9.78 12.98 11.03Q12.19 12.29 10.92 13.04Q9.65 13.79 8.16 13.82Q6.58 13.87 5.22 13.12Q3.86 12.37 3.03 11.05Q2.21 9.73 2.16 8.14Q2.13 6.61 2.82 5.29Q3.52 3.97 4.77 3.13Q6.02 2.29 7.55 2.18Q7.76 2.14 7.89 1.99Q8.02 1.84 8 1.63Q7.98 1.42 7.83 1.29Q7.68 1.15 7.47 1.17Q5.68 1.31 4.22 2.29Q2.77 3.26 1.94 4.82Q1.12 6.38 1.17 8.18Q1.22 10 2.15 11.52Q3.09 13.04 4.64 13.93Q6.19 14.82 8 14.82Z"
              fill="rgba(0,0,0,0.4)"></path>
        <path d="M10.26 1.31Q10.05 1.25 9.87 1.34Q9.7 1.44 9.63 1.65Q9.57 1.86 9.66 2.03Q9.76 2.21 9.95 2.27L12.48 3.04Q10.27 3.71 9.13 5.05Q7.98 6.38 7.66 7.5Q7.33 8.61 7.33 9.07L7.33 9.07Q7.33 9.28 7.46 9.43Q7.6 9.58 7.81 9.58Q8.02 9.58 8.17 9.44Q8.32 9.3 8.32 9.1Q8.32 8.7 8.62 7.72Q8.93 6.74 9.99 5.59Q11.06 4.45 13.12 3.92L12.29 6.66Q12.22 6.85 12.32 7.03Q12.42 7.22 12.61 7.28Q12.78 7.33 12.98 7.24Q13.18 7.15 13.25 6.94L14.4 3.12Q14.46 2.91 14.37 2.73Q14.27 2.54 14.08 2.48L10.26 1.31Z"
              fill="rgba(0,0,0,0.4)"></path>
    </g>
</svg>