<?xml version="1.0" standalone="no"?>
<svg xmlns="http://www.w3.org/2000/svg" width="48" height="48"><rect width="48" height="48" opacity="0"></rect><g><path d="M24 4.99Q29.14 4.99 33.5 7.56Q37.87 10.13 40.44 14.5Q43.01 18.86 43.01 24Q43.01 29.14 40.44 33.5Q37.87 37.87 33.5 40.44Q29.14 43.01 24 43.01Q18.86 43.01 14.5 40.44Q10.13 37.87 7.56 33.5Q4.99 29.14 4.99 24Q4.99 18.86 7.56 14.5Q10.13 10.13 14.5 7.56Q18.86 4.99 24 4.99ZM24 2.02Q18 2.02 12.96 4.97Q7.92 7.92 4.97 12.96Q2.02 18 2.02 24Q2.02 29.95 4.97 35.02Q7.92 40.08 12.98 43.03Q18.05 45.98 24 45.98Q29.95 45.98 35.02 43.03Q40.08 40.08 43.03 35.02Q45.98 29.95 45.98 24Q45.98 18 43.03 12.96Q40.08 7.92 35.04 4.97Q30 2.02 24 2.02Z" fill="rgba(0,0,0,0.9019607843137255)"></path><path d="M32.54 17.57Q32.98 17.09 32.98 16.49Q32.98 15.89 32.54 15.46Q32.11 14.98 31.49 14.98Q30.86 14.98 30.43 15.46L24 21.89L17.57 15.46Q17.14 14.98 16.51 14.98Q15.89 14.98 15.46 15.46Q15.02 15.89 15.02 16.49Q15.02 17.09 15.46 17.57L21.89 24L15.46 30.43Q15.02 30.86 15.02 31.49Q15.02 32.11 15.46 32.54Q15.84 32.98 16.54 32.98Q17.23 32.98 17.57 32.54L24 26.11L30.43 32.54Q30.82 32.98 31.51 32.98Q32.21 32.98 32.54 32.54Q32.98 32.11 32.98 31.49Q32.98 30.86 32.54 30.43L26.11 24L32.54 17.57Z" fill="rgba(0,0,0,0.9019607843137255)"></path></g></svg>