<?xml version="1.0" standalone="no"?><!DOCTYPE svg PUBLIC "-//W3C//DTD SVG 1.1//EN"
        "http://www.w3.org/Graphics/SVG/1.1/DTD/svg11.dtd">
<svg t="1739606947872" class="icon" viewBox="0 0 1024 1024" version="1.1" xmlns="http://www.w3.org/2000/svg" p-id="4054"
     xmlns:xlink="http://www.w3.org/1999/xlink" width="200" height="200">
    <path d="M800 51.2A172.8 172.8 0 0 1 972.8 224v576A172.8 172.8 0 0 1 800 972.8H224A172.8 172.8 0 0 1 51.2 800V224A172.8 172.8 0 0 1 224 51.2h576z m-120.0896 518.912c-12.288 0-24.5504 1.6896-36.8128 5.0176a102.528 102.528 0 0 0-32.9472 15.4368 81.664 81.664 0 0 0-23.6032 25.984c-6.016 10.4192-8.9856 22.6816-8.9856 36.864 0 12.544 2.3552 23.3216 7.0656 32.2048 4.7872 8.8064 10.9568 16.2304 18.6112 22.0928 7.68 5.9392 16.3584 10.7776 26.112 14.464 9.6512 3.7376 19.6352 6.912 29.8752 9.472 9.984 2.8672 19.8144 5.376 29.4912 7.68 9.728 2.304 18.432 5.0432 26.112 8.0896 7.6544 3.0976 13.824 6.9632 18.5856 11.6224a24.192 24.192 0 0 1 7.0912 18.0992c0 6.912-1.792 12.672-5.376 17.152-3.584 4.5312-8.192 8.1408-13.4144 10.5984-5.4528 2.6112-11.264 4.352-17.28 5.1968a119.2192 119.2192 0 0 1-17.28 1.3824c-7.7568 0-15.4624-0.9472-22.9632-2.8928a57.088 57.088 0 0 1-19.3536-8.8576 43.776 43.776 0 0 1-13.2608-15.616 50.688 50.688 0 0 1-4.9664-23.552h-58.1632l0.2304 9.9072c0.8704 12.8512 3.84 24.192 8.9344 34.048 6.4 12.3648 15.0272 22.4512 25.9072 30.5152 10.8288 7.936 23.3984 13.824 37.5552 17.5104a173.6448 173.6448 0 0 0 43.904 5.5808c18.6624 0 35.072-2.176 49.2288-6.5536 14.1824-4.3776 26.112-10.496 35.6608-18.3296a76.288 76.288 0 0 0 21.6576-27.9296c4.864-10.8288 7.2704-22.4768 7.2704-35.1488 0-15.36-3.2256-28.032-9.8048-37.9392a81.92 81.92 0 0 0-23.1424-23.68 101.7088 101.7088 0 0 0-27.0848-12.9024 259.328 259.328 0 0 0-21.248-5.632c-13.8752-3.5328-27.7504-7.1168-41.5744-10.7776a153.6768 153.6768 0 0 1-24.9088-8.4736 27.4176 27.4176 0 0 1-12.0832-9.216 24.832 24.832 0 0 1-3.072-13.1328c0-5.9392 1.28-10.8288 3.84-14.6944 2.56-3.84 5.888-7.1168 9.7792-9.6256 4.0448-2.5856 8.5248-4.4288 13.2352-5.4016 4.864-1.024 9.6768-1.536 14.592-1.536 7.3728 0 14.208 0.6656 20.48 1.9456 6.2464 1.28 11.8272 3.456 16.7168 6.5536 4.8896 3.1744 8.9088 7.5264 11.6224 12.672 3.2 6.3744 4.9664 13.3376 5.1968 20.4544h58.2912l-0.4096-9.216a79.0272 79.0272 0 0 0-8.6272-31.4624 78.848 78.848 0 0 0-24.32-27.52 102.528 102.528 0 0 0-35.1232-15.6672 173.312 173.312 0 0 0-41.1904-4.7872h-0.0512z m-365.4144-1.1008a144 144 0 1 0-0.0256 288 144 144 0 0 0 0-288z m0 57.6a86.4 86.4 0 1 1 0 172.8 86.4 86.4 0 0 1 0-172.8zM255.1552 166.4H195.2v288h59.9552v-124.2368h110.5408v124.2368h59.904V166.4h-59.9552v110.5408H255.104V166.4h0.0512z m375.7312 0h-90.0864v288h55.936V227.6864l58.9824 226.7136h57.9328l59.2128-226.7136v226.7136h55.936V166.4h-90.3168l-53.4528 196.4032L630.8864 166.4z"
          fill="#6897DD" ></path>
</svg>